<svg width="60" height="60" viewBox="0 0 60 60" fill="none" xmlns="http://www.w3.org/2000/svg">
<rect width="60" height="60" rx="13" fill="#F4F4F4"/>
<path d="M37.3888 29.7441C37.3772 27.5938 38.3471 25.9707 40.3105 24.7754C39.212 23.1992 37.5525 22.332 35.3612 22.1621C33.2869 21.998 31.0197 23.375 30.1899 23.375C29.3134 23.375 27.3033 22.2207 25.7256 22.2207C22.4651 22.2734 19 24.8281 19 30.0254C19 31.5605 19.2805 33.1484 19.8414 34.7832C20.5894 36.9336 23.289 42.207 26.1054 42.1191C27.578 42.084 28.6181 41.0703 30.5347 41.0703C32.3928 41.0703 33.357 42.1191 34.9989 42.1191C37.8388 42.0781 40.2813 37.2852 40.9942 35.1289C37.1843 33.3301 37.3888 29.8555 37.3888 29.7441ZM34.0815 20.123C35.6768 18.2246 35.5307 16.4961 35.4839 15.875C34.0757 15.957 32.4454 16.8359 31.5163 17.9199C30.4938 19.0801 29.8919 20.5156 30.0205 22.1328C31.5456 22.25 32.9363 21.4648 34.0815 20.123Z" fill="#1A1A1A"/>
</svg>
